<svg width="934" height="186" viewBox="0 0 934 186" fill="none" xmlns="http://www.w3.org/2000/svg">
<path d="M118 1V114H9.07987C7.88447 113.997 6.70127 113.729 5.59789 113.212C4.49451 112.694 3.49259 111.937 2.64936 110.983C1.80614 110.029 1.13815 108.898 0.683563 107.653C0.228979 106.409 -0.003288 105.076 3.51612e-05 103.731V1H118Z" fill="#FF5574"/>
<path d="M179.095 161.497C179.096 162.616 178.833 163.725 178.319 164.759C177.805 165.794 177.051 166.735 176.101 167.528C175.15 168.321 174.021 168.951 172.778 169.382C171.536 169.813 170.204 170.036 168.858 170.039L127.746 170.219L127 0.225463L168.112 0.0451065C169.458 0.0360892 170.793 0.247741 172.04 0.667966C173.287 1.08819 174.421 1.70875 175.379 2.49419C176.337 3.27963 177.099 4.21454 177.621 5.2455C178.144 6.27647 178.416 7.38328 178.424 8.50268L179.095 161.497Z" fill="#6168FF"/>
<path d="M115.28 171.21L12.4992 171.661C11.1537 171.671 9.81941 171.415 8.57262 170.908C7.32583 170.401 6.19092 169.652 5.23267 168.706C4.27442 167.759 3.51161 166.633 2.98779 165.391C2.46397 164.149 2.18939 162.815 2.17974 161.467L2 120.496L115.055 120L115.28 171.21Z" fill="#FFC043"/>
<rect x="37.6878" y="64.3303" width="41.6754" height="20.0138" transform="rotate(90.9456 37.6878 64.3303)" fill="#F8F8F8"/>
<rect x="70.0012" y="46.0165" width="59.9916" height="19.9657" transform="rotate(90.9456 70.0012 46.0165)" fill="#F8F8F8"/>
<rect x="102.283" y="26.0212" width="79.9897" height="19.9657" transform="rotate(90.9456 102.283 26.0212)" fill="#F8F8F8"/>
<path d="M286.494 76.4303C286.494 64.6178 283.473 55.5312 277.431 49.1707C271.39 42.8101 263.032 39.6298 252.359 39.6298H235.291V113.382H252.359C262.932 113.382 271.239 110.151 277.28 103.69C283.423 97.2284 286.494 88.1418 286.494 76.4303ZM299.936 76.4303C299.936 81.3774 299.433 86.1226 298.426 90.6659C297.52 95.1082 295.909 99.5 293.593 103.841C291.277 108.082 288.357 111.767 284.832 114.897C281.308 118.026 276.727 120.55 271.088 122.469C265.449 124.286 259.105 125.195 252.057 125.195H222V27.8173H252.057C260.918 27.8173 268.52 29.1803 274.864 31.9062C281.308 34.5312 286.292 38.2163 289.817 42.9615C293.341 47.6058 295.909 52.7043 297.52 58.2572C299.131 63.8101 299.936 69.8678 299.936 76.4303Z" fill="black"/>
<path d="M359.899 92.0288C356.878 91.726 354.613 91.5745 353.102 91.5745C350.484 91.5745 347.816 91.8269 345.097 92.3317C342.378 92.7356 339.559 93.4423 336.639 94.4519C333.82 95.3606 331.453 96.8245 329.54 98.8437C327.728 100.863 326.821 103.236 326.821 105.962C326.821 109.596 328.08 112.524 330.597 114.745C333.215 116.865 336.387 117.925 340.113 117.925C347.766 117.925 352.951 115.654 355.67 111.111C358.489 106.567 359.899 100.207 359.899 92.0288ZM374.097 125.195H362.165C361.46 122.065 360.906 118.834 360.503 115.502C357.281 119.642 354.16 122.62 351.139 124.437C348.118 126.154 344.443 127.012 340.113 127.012C333.669 127.012 327.728 125.296 322.29 121.863C316.953 118.329 314.285 113.534 314.285 107.476C314.285 102.63 315.393 98.4904 317.608 95.0577C319.823 91.625 322.844 89.101 326.67 87.4856C330.497 85.7692 334.373 84.5577 338.3 83.851C342.227 83.1442 346.406 82.7909 350.837 82.7909H360.05C360.251 80.9736 360.352 79.6106 360.352 78.7019C360.352 69.7163 355.368 65.2236 345.399 65.2236C341.372 65.2236 337.847 66.1322 334.826 67.9495C331.906 69.6659 330.446 72.3413 330.446 75.976H317.91C317.91 62.75 326.922 56.137 344.946 56.137C359.547 56.137 368.206 59.9231 370.925 67.4952C371.831 69.8173 372.284 75.3702 372.284 84.1538V106.264C372.284 115.856 372.888 122.166 374.097 125.195Z" fill="black"/>
<path d="M425.148 125.195C421.624 126.406 418.301 127.012 415.179 127.012C408.937 127.012 404.506 125.599 401.888 122.772C399.371 119.945 398.112 114.846 398.112 107.476V66.4351H385.878V57.8029H398.112V44.3245L410.346 39.3269V57.8029H425.148V66.4351H410.346V107.476C410.346 111.514 410.9 114.24 412.008 115.654C413.216 117.067 415.079 117.774 417.596 117.774C420.214 117.774 422.731 117.37 425.148 116.562V125.195Z" fill="black"/>
<path d="M481.335 92.0288C478.314 91.726 476.048 91.5745 474.538 91.5745C471.92 91.5745 469.252 91.8269 466.533 92.3317C463.814 92.7356 460.995 93.4423 458.075 94.4519C455.255 95.3606 452.889 96.8245 450.976 98.8437C449.163 100.863 448.257 103.236 448.257 105.962C448.257 109.596 449.516 112.524 452.033 114.745C454.651 116.865 457.823 117.925 461.549 117.925C469.201 117.925 474.387 115.654 477.106 111.111C479.925 106.567 481.335 100.207 481.335 92.0288ZM495.532 125.195H483.6C482.895 122.065 482.342 118.834 481.939 115.502C478.717 119.642 475.595 122.62 472.574 124.437C469.554 126.154 465.878 127.012 461.549 127.012C455.104 127.012 449.163 125.296 443.726 121.863C438.389 118.329 435.721 113.534 435.721 107.476C435.721 102.63 436.828 98.4904 439.044 95.0577C441.259 91.625 444.28 89.101 448.106 87.4856C451.932 85.7692 455.809 84.5577 459.736 83.851C463.663 83.1442 467.842 82.7909 472.272 82.7909H481.486C481.687 80.9736 481.788 79.6106 481.788 78.7019C481.788 69.7163 476.804 65.2236 466.835 65.2236C462.807 65.2236 459.283 66.1322 456.262 67.9495C453.342 69.6659 451.882 72.3413 451.882 75.976H439.346C439.346 62.75 448.358 56.137 466.382 56.137C480.982 56.137 489.642 59.9231 492.361 67.4952C493.267 69.8173 493.72 75.3702 493.72 84.1538V106.264C493.72 115.856 494.324 122.166 495.532 125.195Z" fill="black"/>
<path d="M569.844 87.7885V95.512H511.845V87.7885H569.844Z" fill="black"/>
<path d="M659.108 98.238C659.108 103.69 657.9 108.385 655.483 112.322C653.067 116.26 649.794 119.288 645.666 121.409C641.537 123.428 637.207 124.892 632.676 125.8C628.246 126.81 623.463 127.315 618.328 127.315C609.064 127.315 601.361 124.488 595.219 118.834C589.177 113.079 586.156 105.507 586.156 96.1178H600.052C600.052 101.469 601.764 106.012 605.187 109.748C608.611 113.382 612.94 115.2 618.177 115.2C621.701 115.2 624.772 115.048 627.39 114.745C630.008 114.442 632.878 113.837 635.999 112.928C639.121 111.918 641.537 110.303 643.249 108.082C644.961 105.76 645.817 102.832 645.817 99.2981C645.817 95.1587 644.709 91.8269 642.494 89.3029C640.379 86.6779 637.61 84.8101 634.187 83.6995C630.763 82.5889 626.987 81.7308 622.859 81.125C618.73 80.4183 614.602 79.6106 610.473 78.7019C606.345 77.6923 602.569 76.3798 599.146 74.7644C595.722 73.0481 592.903 70.3221 590.687 66.5865C588.573 62.851 587.515 58.1562 587.515 52.5024C587.515 44.5264 590.939 38.1154 597.786 33.2692C604.734 28.4231 612.336 26 620.593 26C625.124 26 629.353 26.4543 633.28 27.363C637.308 28.2716 640.983 29.7356 644.306 31.7548C647.73 33.6731 650.398 36.399 652.311 39.9327C654.325 43.4663 655.332 47.6058 655.332 52.351H641.739C641.739 49.2212 641.134 46.6466 639.926 44.6274C638.718 42.5072 636.956 40.9928 634.64 40.0841C632.425 39.1755 630.209 38.5697 627.994 38.2668C625.779 37.9639 623.11 37.8125 619.989 37.8125C607.402 37.8125 601.109 42.8606 601.109 52.9567C601.109 56.8942 602.519 60.024 605.338 62.3462C608.258 64.6683 611.833 66.2332 616.062 67.0409C620.392 67.8486 625.074 68.9087 630.109 70.2212C635.143 71.4327 639.775 72.8462 644.004 74.4615C648.334 75.976 651.909 78.7524 654.728 82.7909C657.648 86.8293 659.108 91.9784 659.108 98.238Z" fill="black"/>
<path d="M730.701 102.478C730.701 109.445 728.536 115.3 724.206 120.046C719.876 124.69 713.029 127.012 703.665 127.012C683.929 127.012 674.061 115.2 674.061 91.5745C674.061 79.5601 676.276 70.6755 680.707 64.9207C685.238 59.0649 692.438 56.137 702.305 56.137C711.469 56.137 718.366 57.9543 722.998 61.5889C727.73 65.2236 730.097 70.1202 730.097 76.2788C730.097 77.3894 730.046 78.2476 729.946 78.8534H718.014C718.114 78.2476 718.165 77.3894 718.165 76.2788C718.165 68.9087 712.576 65.2236 701.399 65.2236C691.129 65.2236 685.993 74.0072 685.993 91.5745C685.993 100.964 687.453 107.728 690.373 111.868C693.394 115.906 697.825 117.925 703.665 117.925C708.901 117.925 712.677 116.31 714.993 113.079C717.409 109.748 718.618 106.214 718.618 102.478H730.701Z" fill="black"/>
<path d="M783.414 68.7067C766.9 68.7067 758.643 74.9663 758.643 87.4856V125.195H746.409V57.8029H758.643V67.0409C760.556 63.7091 763.124 61.3365 766.346 59.9231C769.669 58.5096 775.358 57.8029 783.414 57.8029V68.7067Z" fill="black"/>
<path d="M837.939 92.0288C834.918 91.726 832.653 91.5745 831.142 91.5745C828.524 91.5745 825.856 91.8269 823.137 92.3317C820.418 92.7356 817.599 93.4423 814.679 94.4519C811.859 95.3606 809.493 96.8245 807.58 98.8437C805.768 100.863 804.861 103.236 804.861 105.962C804.861 109.596 806.12 112.524 808.637 114.745C811.255 116.865 814.427 117.925 818.153 117.925C825.805 117.925 830.991 115.654 833.71 111.111C836.529 106.567 837.939 100.207 837.939 92.0288ZM852.137 125.195H840.205C839.5 122.065 838.946 118.834 838.543 115.502C835.321 119.642 832.199 122.62 829.179 124.437C826.158 126.154 822.483 127.012 818.153 127.012C811.708 127.012 805.768 125.296 800.33 121.863C794.993 118.329 792.325 113.534 792.325 107.476C792.325 102.63 793.433 98.4904 795.648 95.0577C797.863 91.625 800.884 89.101 804.71 87.4856C808.537 85.7692 812.413 84.5577 816.34 83.851C820.267 83.1442 824.446 82.7909 828.877 82.7909H838.09C838.291 80.9736 838.392 79.6106 838.392 78.7019C838.392 69.7163 833.408 65.2236 823.439 65.2236C819.411 65.2236 815.887 66.1322 812.866 67.9495C809.946 69.6659 808.486 72.3413 808.486 75.976H795.95C795.95 62.75 804.962 56.137 822.986 56.137C837.586 56.137 846.246 59.9231 848.965 67.4952C849.871 69.8173 850.324 75.3702 850.324 84.1538V106.264C850.324 115.856 850.928 122.166 852.137 125.195Z" fill="black"/>
<path d="M921.011 91.5745C921.011 84.0024 919.349 77.6418 916.026 72.4928C912.804 67.2428 907.921 64.6178 901.375 64.6178C894.629 64.6178 889.645 67.1923 886.423 72.3413C883.2 77.4904 881.589 83.9014 881.589 91.5745C881.589 99.2476 883.2 105.659 886.423 110.808C889.645 115.856 894.629 118.38 901.375 118.38C907.921 118.38 912.804 115.856 916.026 110.808C919.349 105.659 921.011 99.2476 921.011 91.5745ZM926.448 65.8293C931.483 72.2909 934 80.8726 934 91.5745C934 102.276 931.483 110.909 926.448 117.471C921.413 124.034 913.509 127.315 902.735 127.315C896.29 127.315 889.242 124.286 881.589 118.228V152H869.355V57.8029H881.589V66.4351C885.315 63.0024 888.739 60.4279 891.86 58.7115C894.981 56.9952 898.606 56.137 902.735 56.137C913.509 56.137 921.413 59.3678 926.448 65.8293Z" fill="black"/>
</svg>
